<svg width="82" height="75" viewBox="0 0 82 75" fill="none" xmlns="http://www.w3.org/2000/svg">
<path d="M39.6008 14.2461L20.0124 5.1727V0L0 8.14064V15.3485L19.8428 7.29266L39.6008 15.3485V14.2461Z" fill="#F37321"/>
<path d="M39.6008 26.2028L20.0124 18.4862V13.3135L0 20.0973V27.2204L19.8428 20.6061L39.6008 27.2204V26.2028Z" fill="#F37321"/>
<path d="M39.6008 38.0745L20.0124 31.7994V26.6267L0 31.969V39.1769L19.8428 33.8346L39.6008 39.1769V38.0745Z" fill="#F37321"/>
<path d="M39.6008 50.0309L20.0124 45.7061V40.5334L0 43.9254V51.0484L19.8428 47.8261L39.6008 51.0484V50.0309Z" fill="#F37321"/>
<path d="M0 55.797V63.0049L19.8428 61.2241L39.6008 63.0049V61.9025L20.0124 59.1042V54.1011L0 55.797Z" fill="#F37321"/>
<path d="M39.6008 74.8768V73.8592L20.0124 72.672V67.6689L0 67.7537V74.8768H19.8428H39.6008Z" fill="#F37321"/>
<path d="M62.4116 13.3135L42.3992 20.0973V27.2204L62.1572 20.6061L82 27.2204V26.2028L62.4116 18.4862V13.3135Z" fill="#F37321"/>
<path d="M62.4116 26.6267L42.3992 31.969V39.1769L62.1572 33.8346L82 39.1769V38.0745L62.4116 31.7994V26.6267Z" fill="#F37321"/>
<path d="M62.4116 40.5334L42.3992 43.9254V51.0484L62.1572 47.8261L82 51.0484V50.0309L62.4116 45.7061V40.5334Z" fill="#F37321"/>
<path d="M62.4116 54.1011L42.3992 55.797V63.0049L62.1572 61.2241L82 63.0049V61.9025L62.4116 59.1042V54.1011Z" fill="#F37321"/>
<path d="M62.4116 67.6689L42.3992 67.7537V74.8768H62.1572H82V73.8592L62.4116 72.672V67.6689Z" fill="#F37321"/>
</svg>
