<svg width="96" height="95" viewBox="0 0 96 95" fill="none" xmlns="http://www.w3.org/2000/svg">
<path d="M48.1991 1.17978C47.6698 1.18513 47.1398 1.20005 46.6097 1.2233C47.1405 1.20207 47.6779 1.16295 48.1991 1.17978ZM48.1991 1.17978C53.0095 1.13148 57.7759 1.81623 62.3272 3.19785C59.8656 2.63149 57.2266 2.34591 54.4237 2.35166C52.4355 1.67305 50.3647 1.24968 48.1991 1.17978ZM25.1095 7.20957C23.6249 8.05667 22.2067 8.97689 20.8497 9.95301C17.2374 12.4199 14.2122 15.0752 12.4959 17.4414L12.4891 17.4515L12.4844 17.4542C12.4209 17.5786 12.3868 17.6789 12.3258 17.8013C11.2722 18.8791 10.3936 20.033 9.68469 21.2541C-0.276723 35.5082 -1.90472 54.6189 7.04433 70.5883C7.04888 70.605 7.04979 70.6222 7.05441 70.6389L7.06788 70.6625C7.09582 70.7123 7.13218 70.7542 7.16081 70.8034C7.17969 70.8367 7.19368 70.872 7.21264 70.9052C11.6809 78.736 18.1237 84.7443 25.5737 88.6969C26.4109 89.3443 27.4404 89.8346 28.637 90.1838C38.2602 94.4193 49.2606 95.3773 59.7825 92.5721C63.6696 91.5357 67.4911 89.9943 71.1533 87.9047C72.3979 87.1945 73.5924 86.4301 74.7475 85.6286C74.786 85.6014 74.8287 85.5794 74.8648 85.5491C76.1493 84.6522 77.3764 83.7042 78.5469 82.7036C81.256 80.5422 83.5613 78.22 85.0595 75.9029C88.92 70.9687 91.7264 65.3623 93.3709 59.4479C93.3762 59.4308 93.3797 59.4132 93.385 59.396C94.3297 56.3754 94.8505 53.2591 94.969 50.1208C95.5719 41.3611 93.7046 32.3668 89.05 24.2094C84.0581 15.4608 76.6055 8.98388 68.0299 5.11311C67.9294 5.06791 67.8292 5.02298 67.728 4.97878C59.7821 1.45953 50.8948 0.174487 42.1061 1.40332C42.1004 1.40411 42.0949 1.40589 42.0892 1.40668C38.5948 1.55647 34.442 2.81589 30.3265 4.65214C28.5604 5.39427 26.8158 6.23596 25.1095 7.20957ZM24.4262 7.93103C25.1546 7.5024 25.8976 7.08319 26.648 6.68203C27.7389 6.09887 28.8479 5.5625 29.9613 5.05425C30.1546 4.97062 30.3506 4.89618 30.5446 4.81532C29.301 5.71523 28.2422 7.36751 27.3768 9.75753C27.3668 9.76578 27.3564 9.77285 27.3464 9.78111C27.1797 9.8224 27.0162 9.85369 26.8489 9.89606L26.8199 9.90008L26.799 9.91826C26.6777 10.0258 26.5645 10.1319 26.4443 10.2396C25.4257 9.81548 24.5026 9.50474 23.7654 9.41554C22.9926 9.32199 22.3595 9.40688 21.8732 9.66309C21.7111 9.74849 21.563 9.85408 21.4329 9.97693C20.9124 10.4683 20.6628 11.2384 20.634 12.2284C20.6322 12.293 20.6508 12.3776 20.6508 12.4441C19.3725 12.9647 18.1673 13.5212 17.088 14.1392C15.9474 14.7923 14.9489 15.5125 14.021 16.2646C16.1492 13.9835 18.5244 11.8899 21.1456 10.0219C21.1561 10.0144 21.1655 10.0058 21.176 9.99834C22.2217 9.29011 23.2997 8.59393 24.4262 7.93103ZM21.9762 9.8546C22.4143 9.62338 22.9949 9.54125 23.7383 9.63125C24.4254 9.71442 25.3048 10.0039 26.2729 10.3999C26.1446 10.5153 26.0222 10.6312 25.8952 10.7468C24.0713 11.2072 22.3933 11.7435 20.8624 12.3547C20.8628 12.3187 20.85 12.2713 20.851 12.236C20.8788 11.2794 21.1218 10.5714 21.585 10.1341C21.7008 10.0248 21.8301 9.93167 21.9762 9.8546ZM31.1717 4.66391C31.3994 4.53877 31.6315 4.44066 31.8682 4.36037C32.8807 4.01678 33.9877 4.08007 35.1636 4.48848C34.9699 4.58977 34.7823 4.667 34.5877 4.77325C32.3471 5.99691 30.0502 7.57474 27.7054 9.48867C28.6584 7.00164 29.8264 5.40335 31.1717 4.66391ZM32.7468 3.95913C35.8449 2.84489 39.0026 2.06795 42.177 1.62533C42.4333 1.61544 42.6693 1.6382 42.9177 1.64062C40.5066 2.12982 38.0015 3.04436 35.4294 4.36178C34.4966 4.00988 33.5981 3.86494 32.7468 3.95913ZM14.9328 14.9997C14.799 15.1341 14.6635 15.268 14.5315 15.4038C14.6626 15.2692 14.7954 15.1352 14.9328 14.9997ZM17.1981 14.3202C18.2496 13.7194 19.4253 13.1796 20.6685 12.6716C20.6834 13.1942 20.7475 13.77 20.8656 14.3987C16.5317 17.6294 13.0174 20.9421 10.2246 24.2934C10.4898 22.6121 11.2366 20.5099 12.4786 18.0018C12.5916 17.868 12.7046 17.7335 12.8192 17.6009C14.0506 16.4048 15.4856 15.2988 17.1981 14.3202ZM20.8755 12.5848C22.3029 12.0129 23.862 11.5041 25.5503 11.0624C25.4354 11.1679 25.3189 11.2726 25.205 11.3783C23.7534 12.3274 22.3609 13.2862 21.0571 14.2519C20.946 13.6398 20.8848 13.0853 20.8755 12.5848ZM34.6882 4.95983C34.9407 4.8218 35.1864 4.72454 35.4373 4.59496C36.0584 4.83717 36.7049 5.21518 37.3618 5.64298C34.5057 6.67162 31.5311 7.95948 28.4377 9.52124C28.232 9.56962 28.0267 9.61708 27.8202 9.66712C30.1621 7.75352 32.4568 6.17983 34.6882 4.95983ZM35.7004 4.4637C38.5964 2.99958 41.3917 2.09342 44.0738 1.68178C45.6981 1.97229 47.0047 2.37245 48.0473 2.85577C44.7673 3.3566 41.2894 4.24154 37.6143 5.549C36.9654 5.11607 36.322 4.72325 35.7004 4.4637ZM26.9336 10.0979C26.9449 10.0951 26.9561 10.0941 26.9673 10.0912C26.9001 10.148 26.8344 10.1982 26.767 10.2556C26.8249 10.204 26.8755 10.1494 26.9336 10.0979ZM11.9185 18.6968C10.8301 21.0289 10.1688 23.0113 9.97216 24.6064C9.16493 25.5916 8.4042 26.5782 7.72029 27.5681C8.02905 25.4609 8.68689 23.4678 9.71319 21.6195C10.4044 20.6187 11.146 19.6475 11.9185 18.6968ZM26.4979 10.4968C26.5109 10.5023 26.5246 10.506 26.5376 10.5116C26.4796 10.5481 26.4288 10.5888 26.3711 10.6254C26.3671 10.6264 26.3629 10.6251 26.3589 10.6261C26.4063 10.5834 26.4503 10.5394 26.4979 10.4968ZM27.5342 9.95543C27.564 9.94812 27.5935 9.94323 27.6232 9.93595C27.5891 9.9536 27.5556 9.97006 27.5214 9.98778C27.5253 9.97666 27.5303 9.96653 27.5342 9.95543ZM27.0775 10.46C27.0955 10.4506 27.1142 10.4446 27.1322 10.4351C27.1292 10.4442 27.1243 10.451 27.1214 10.4601C27.1067 10.4595 27.0922 10.4606 27.0775 10.46ZM27.4113 10.2884C27.7811 10.0954 28.146 9.91405 28.5124 9.7289C32.5386 8.78311 36.3987 8.1476 40.09 7.80283C40.4265 8.12104 40.7699 8.49219 41.1112 8.8469C39.294 9.59717 37.4805 10.423 35.6828 11.3187C32.981 10.8769 30.2017 10.591 27.3439 10.477C27.3658 10.4098 27.3891 10.3543 27.4113 10.2884ZM26.2529 10.9556C24.6774 13.28 23.2957 15.6417 22.0922 18.0286C21.8126 17.2375 21.5784 16.4865 21.3899 15.789C21.364 15.6929 21.3556 15.6162 21.3315 15.522C22.6 14.1836 23.9501 12.8544 25.379 11.5294C25.6705 11.3391 25.9552 11.1452 26.2529 10.9556ZM26.623 10.7819C26.7393 10.7544 26.8439 10.7221 26.9614 10.6952C26.9827 10.7049 27 10.7137 27.0214 10.7235C27.0083 10.7658 26.9946 10.7974 26.9815 10.8401L26.9768 10.8428L26.9748 10.8502C26.5958 12.6493 26.4016 14.5994 26.3416 16.6487C25.0513 17.4804 23.7905 18.339 22.5565 19.2152C22.4389 18.9101 22.3032 18.5939 22.1971 18.3003C23.4666 15.7627 24.9315 13.2486 26.623 10.7819ZM29.3316 9.31153C32.1874 7.90403 34.9366 6.73827 37.5845 5.79124C37.8502 5.97137 38.1095 6.11106 38.3803 6.31952C38.8674 6.69465 39.3648 7.14383 39.8651 7.60589C36.4922 7.92938 32.9813 8.49029 29.3316 9.31153ZM24.2602 12.2553C23.2159 13.2517 22.2303 14.2557 21.2756 15.2598C21.2107 14.9922 21.1582 14.7361 21.1089 14.4852C22.1169 13.7368 23.1631 12.9943 24.2602 12.2553ZM27.2256 10.8073C27.3441 10.8634 27.435 10.8894 27.5571 10.9497C27.5612 10.9517 27.5632 10.9545 27.5672 10.9565C28.6428 11.8935 29.7284 12.8959 30.8143 13.9277C30.495 14.1107 30.1734 14.2879 29.8562 14.4744C28.8935 15.0405 27.9372 15.6227 26.9971 16.2184C26.854 16.3091 26.7168 16.4059 26.5743 16.4972C26.6396 14.5223 26.8227 12.6384 27.1871 10.9042C27.1982 10.8679 27.2144 10.8433 27.2256 10.8073ZM27.5115 10.6942C30.1914 10.808 32.804 11.0817 35.3462 11.4857C33.8849 12.2213 32.4376 13.0021 31.0078 13.8173C29.901 12.7645 28.798 11.741 27.7014 10.786L27.6913 10.7793L27.6785 10.7678C27.6169 10.7373 27.5722 10.7237 27.5115 10.6942ZM43.7588 1.43599C44.2839 1.38085 44.8076 1.32603 45.3328 1.28869C44.9236 1.3285 44.5083 1.40101 44.0938 1.46385C44.0542 1.45681 44.0204 1.44779 43.9805 1.44086L43.9731 1.43884C43.9045 1.43294 43.8281 1.44082 43.7588 1.43599ZM20.9127 14.6346C20.9671 14.9027 21.0201 15.1668 21.0915 15.4523C16.9307 19.8562 13.6163 24.3238 11.0675 28.7741C10.6726 28.3014 10.3827 27.7291 10.2315 27.0237C10.0893 26.3607 10.0792 25.5755 10.1858 24.6847C12.9802 21.2857 16.5212 17.9167 20.9127 14.6346ZM44.7044 1.59092C47.8871 1.19119 50.9082 1.47765 53.7425 2.35283C52.0352 2.38626 50.2628 2.52863 48.4313 2.79305C47.4505 2.3002 46.2106 1.89943 44.7044 1.59092ZM37.837 5.69713C41.5623 4.38134 45.08 3.50454 48.3925 3.02162C49.6352 3.6578 50.456 4.42304 50.8952 5.29137C50.9462 5.39207 50.9757 5.49998 51.017 5.60353C50.9138 5.62775 50.8123 5.6418 50.7089 5.66671C48.8965 6.10347 47.0595 6.65292 45.2144 7.28774C43.5698 7.3253 41.886 7.41917 40.1676 7.57711C39.6105 7.05498 39.0571 6.5671 38.5144 6.14912C38.2848 5.97234 38.0638 5.85438 37.837 5.69713ZM21.1501 15.7192C21.1621 15.7647 21.1666 15.8008 21.179 15.8466C21.3836 16.6038 21.6558 17.4253 21.9654 18.2885C21.6238 18.974 21.2957 19.6616 20.9834 20.3505C17.4979 22.9287 14.3028 25.6457 11.5444 28.3705C14.0225 24.1442 17.2079 19.9054 21.1501 15.7192ZM8.81 22.9857C8.14832 24.5053 7.68582 26.1002 7.4616 27.772C7.45198 27.8436 7.45076 27.9178 7.44191 27.9897C4.57417 32.2494 2.81116 36.5374 2.00725 40.7578C3.02985 34.4761 5.33254 28.4163 8.81 22.9857ZM9.9304 24.9931C9.86533 25.7652 9.89029 26.4637 10.0201 27.0692C10.1838 27.8326 10.502 28.4635 10.9451 28.9754C9.93314 29.9996 8.96349 31.0231 8.08786 32.0385C7.91356 32.2407 7.76127 32.4387 7.59274 32.6402C7.45862 31.071 7.4748 29.5411 7.6529 28.0633C8.34546 27.0375 9.10477 26.0145 9.9304 24.9931ZM48.7595 2.96236C50.7133 2.69314 52.5875 2.57214 54.3969 2.56754C54.7248 2.68025 55.0588 2.77235 55.3815 2.90049C56.4856 3.33877 57.554 3.87816 58.5965 4.48854C56.218 4.61494 53.7523 4.9753 51.234 5.55485C51.1872 5.43429 51.1493 5.30998 51.09 5.19279C50.6575 4.33774 49.8918 3.58886 48.7595 2.96236ZM40.3953 7.77877C41.8165 7.65183 43.2213 7.55571 44.5914 7.5118C43.5053 7.89718 42.4182 8.31414 41.3303 8.75945C41.0176 8.43314 40.7045 8.07529 40.3953 7.77877ZM22.0702 18.5603C22.1631 18.8139 22.2726 19.0827 22.3737 19.3444C22.0312 19.5888 21.6828 19.8279 21.3453 20.0752C21.5788 19.5687 21.8207 19.0648 22.0702 18.5603ZM29.964 14.663C30.2999 14.4655 30.6406 14.2775 30.9788 14.084C33.4145 16.4075 35.8615 18.9424 38.297 21.6461C36.7308 22.6674 35.1016 23.6486 33.4426 24.5536C31.4353 25.6486 29.3973 26.6221 27.3959 27.4658C26.7689 23.6845 26.4729 20.0808 26.5599 16.7678C26.7465 16.6478 26.9265 16.5203 27.1142 16.4014C28.0523 15.807 29.0034 15.2279 29.964 14.663ZM31.1723 13.9736C32.6694 13.1214 34.1865 12.3072 35.717 11.543C39.0306 12.0886 42.2099 12.8824 45.2692 13.8636C45.6227 14.3471 45.9767 14.8296 46.3313 15.3411C44.167 17.4493 41.4719 19.5712 38.4879 21.5309C36.0553 18.8294 33.6069 16.2984 31.1723 13.9736ZM26.3274 16.9195C26.2529 20.2214 26.5587 23.8049 27.1841 27.5551C26.9703 27.6442 26.7562 27.7285 26.5436 27.8142C24.933 24.735 23.6018 21.9058 22.6339 19.4272C23.8384 18.5707 25.0688 17.7335 26.3274 16.9195ZM36.0565 11.3806C37.787 10.5256 39.5295 9.73442 41.2765 9.01527C42.5153 10.3204 43.7785 11.85 45.0564 13.5783C42.1658 12.6651 39.1724 11.9081 36.0565 11.3806ZM22.4512 19.5567C23.4198 22.0304 24.7385 24.8459 26.3367 27.9012C23.2007 29.1501 20.222 29.9977 17.6818 30.2994C18.5297 27.0192 19.6882 23.7412 21.1547 20.4967C21.5828 20.1803 22.0149 19.8685 22.4512 19.5567ZM41.4952 8.92803C42.7514 8.41534 44.0074 7.93095 45.26 7.49935C47.3206 7.45305 49.318 7.49758 51.2597 7.62981C51.1317 8.7371 50.6475 9.93994 49.8446 11.2028C49.1978 12.22 48.3343 13.2752 47.3345 14.3369C46.6958 14.1096 46.0531 13.8906 45.4024 13.6812C44.0836 11.8815 42.7787 10.2857 41.4952 8.92803ZM20.7876 20.775C19.3838 23.9358 18.2776 27.1283 17.4566 30.3215C16.3678 30.4376 15.3402 30.4821 14.451 30.3722C13.318 30.2322 12.371 29.9002 11.6543 29.3526C11.506 29.2393 11.3751 29.1103 11.2467 28.9783C14.0115 26.197 17.2458 23.4183 20.7876 20.775ZM7.39607 28.4474C7.25215 29.8843 7.25665 31.3661 7.39867 32.8821C4.88909 35.9186 3.03251 38.8626 2.09993 41.5243C2.13505 41.311 2.15876 41.0996 2.19874 40.886C2.96755 36.7792 4.65766 32.6028 7.39607 28.4474ZM45.9178 7.28042C47.5427 6.73938 49.158 6.26293 50.755 5.87803C50.8698 5.85038 50.9823 5.83494 51.0968 5.80815C51.2661 6.3174 51.3274 6.8532 51.2852 7.4213C49.5437 7.30197 47.7543 7.25708 45.9178 7.28042ZM55.0837 2.57598C59.0515 2.63707 62.6758 3.3008 65.9372 4.49154C66.5514 4.71579 67.1526 4.96014 67.7419 5.21999C68.2737 5.45448 68.7902 5.70685 69.3018 5.96918C66.1986 4.75583 62.7015 4.30217 58.974 4.46032C57.8388 3.77731 56.67 3.17921 55.4598 2.69884C55.3368 2.64998 55.2075 2.62262 55.0837 2.57598ZM51.313 5.7599C53.9201 5.16187 56.4702 4.78753 58.9186 4.67999C61.2968 6.12007 63.5063 7.99079 65.5309 10.2045C61.278 8.76207 56.5958 7.80262 51.5001 7.43593C51.5438 6.8499 51.4866 6.29164 51.313 5.7599ZM11.1048 29.1469C11.2364 29.2813 11.3715 29.4126 11.5225 29.528C12.2788 30.1058 13.2637 30.4447 14.4236 30.5881C15.312 30.6978 16.3289 30.6618 17.4009 30.5535C15.8673 36.6173 15.3652 42.6669 15.6563 48.5055C15.5075 48.6663 15.3442 48.8246 15.1983 48.9858C14.813 49.4117 14.4743 49.8415 14.1103 50.2699C11.0709 45.3217 8.9065 40.2902 7.98967 35.5298C8.85689 33.4122 9.89495 31.2823 11.1048 29.1469ZM10.5571 29.6784C9.557 31.497 8.676 33.311 7.9229 35.117C7.79273 34.386 7.69346 33.6642 7.62364 32.9477C7.83537 32.6924 8.02972 32.4397 8.25101 32.1831C8.96707 31.3527 9.74793 30.5162 10.5571 29.6784ZM51.4744 7.64501C56.6983 8.01869 61.486 9.01857 65.8176 10.5227C68.0366 13.0064 70.0103 15.9205 71.7465 19.115C71.3721 19.1599 71.0151 19.1821 70.6335 19.237C67.7456 19.6523 64.645 20.3782 61.44 21.3168C57.2202 18.5724 52.5767 16.229 47.5501 14.4199C48.5304 13.3713 49.385 12.3278 50.0278 11.3168C50.8431 10.0346 51.343 8.79761 51.4744 7.64501ZM7.42719 33.185C7.50818 33.9536 7.61506 34.724 7.76412 35.5079C5.62516 40.7546 4.50175 45.9253 4.24641 50.8796C3.02462 49.7837 2.16075 48.3335 1.73292 46.4636C1.71261 46.3546 1.72165 46.2332 1.70685 46.1219C1.71243 45.137 1.7669 44.1442 1.87455 43.148C2.52619 40.1961 4.49834 36.7624 7.42719 33.185ZM59.2962 4.65229C63.8577 4.50212 68.0518 5.28962 71.574 7.27576C73.3382 9.22195 74.001 11.4549 73.7868 13.8843C71.3722 12.5175 68.7642 11.3292 65.9646 10.3514C63.9287 8.07699 61.7003 6.14662 59.2962 4.65229ZM45.6153 13.9665C46.1425 14.1387 46.6616 14.3219 47.1808 14.506C46.9631 14.7337 46.7197 14.9608 46.4882 15.1891C46.1965 14.7688 45.9064 14.3681 45.6153 13.9665ZM7.84602 35.893C8.80578 40.6126 10.9568 45.5724 13.9614 50.4484C13.1062 51.464 12.3085 52.482 11.5835 53.5072C9.87257 53.3908 8.32549 53.081 6.98906 52.5499C6.03085 52.1691 5.18473 51.6681 4.45353 51.0559C4.68534 46.1693 5.76978 41.0734 7.84602 35.893ZM17.6258 30.5317C20.2214 30.238 23.2539 29.372 26.4417 28.098C26.8646 28.9033 27.2987 29.7224 27.7572 30.5571C28.1861 32.6467 28.7017 34.7737 29.2948 36.9252C24.1964 40.4598 19.5857 44.3051 15.8627 48.2873C15.5946 42.5113 16.1013 36.5268 17.6258 30.5317ZM47.397 14.5892C52.3751 16.3738 56.9743 18.6895 61.16 21.3955C58.2479 22.2594 55.2518 23.3024 52.2196 24.5323C50.3783 21.1815 48.4924 18.1 46.6124 15.3741C46.8782 15.1124 47.149 14.8504 47.397 14.5892ZM46.4555 15.5269C48.3199 18.2322 50.1891 21.2926 52.0175 24.6167C49.4079 25.681 46.7852 26.8766 44.1777 28.1702C42.3508 25.9406 40.4997 23.7674 38.6349 21.6911C41.6034 19.7408 44.2896 17.6338 46.4555 15.5269ZM26.6447 28.0134C26.8354 27.9364 27.027 27.8597 27.2185 27.7799C27.3343 28.4614 27.4884 29.1593 27.6244 29.8508C27.2843 29.2253 26.9642 28.6217 26.6447 28.0134ZM27.4302 27.6904C29.4543 26.8374 31.5148 25.8532 33.5458 24.7452C35.2211 23.8313 36.8664 22.8423 38.4474 21.8107C40.3085 23.8824 42.1552 26.0455 43.9792 28.2708C43.0602 28.7288 42.1391 29.1824 41.2275 29.6657C39.972 30.3313 38.7259 31.0182 37.4926 31.728C35.2782 33.0023 33.1122 34.3472 31.0126 35.7446C29.9515 33.9515 28.898 32.1677 27.9651 30.4695C27.7742 29.5362 27.5848 28.6055 27.4302 27.6904ZM1.46276 45.7922C1.47085 45.8897 1.47421 45.9894 1.48616 46.0854C1.4511 51.0094 2.6577 55.7696 4.81062 60.2126C5.21008 62.4906 5.79029 64.6937 6.54825 66.8107C6.54843 67.8302 6.65898 68.84 6.87263 69.8354C2.7644 62.2203 1.03806 53.9207 1.46276 45.7922ZM28.1007 31.1682C28.9435 32.6871 29.8896 34.2754 30.8317 35.8668C30.378 36.17 29.9345 36.4818 29.4878 36.7901C28.9669 34.8949 28.4943 33.0159 28.1007 31.1682ZM1.72704 47.2306C2.22725 48.8607 3.07557 50.1674 4.2334 51.1626C4.10612 54.0001 4.2653 56.7647 4.68054 59.4355C2.9035 55.5655 1.86356 51.4619 1.72704 47.2306ZM66.25 10.6705C68.939 11.6319 71.4461 12.7935 73.773 14.1176C73.7339 14.4703 73.6756 14.8252 73.6004 15.1859C73.3393 16.438 72.8229 17.7432 72.1562 19.0696C72.0972 19.0761 72.0387 19.0822 71.9796 19.089C70.2957 15.9782 68.3935 13.1209 66.25 10.6705ZM72.1519 7.64702C76.6827 10.6513 80.2815 14.8189 82.9588 19.7004C82.6688 19.6076 82.3796 19.5128 82.0753 19.4349C81.8614 19.3802 81.6174 19.3567 81.3966 19.3091C79.1861 17.3433 76.7146 15.5611 73.9953 14.0029C74.2188 11.6933 73.6502 9.54119 72.1519 7.64702ZM73.0596 7.99876C79.1195 11.7044 84.3753 16.8655 88.2708 23.3079C87.0948 21.6768 85.3843 20.5204 83.2533 19.7888C80.7054 15.0839 77.3115 11.0177 73.0596 7.99876ZM37.6008 31.923C38.8319 31.2145 40.0749 30.5231 41.3283 29.8587C42.2522 29.3689 43.1862 28.906 44.1178 28.4422C46.8295 31.7577 49.4518 35.2209 51.9938 38.7144C49.742 40.1992 47.4025 41.6209 45.0172 42.958C42.6481 44.2861 40.2333 45.5246 37.8187 46.6588C36.2426 44.274 34.7158 41.8925 33.2686 39.5508C32.5072 38.3188 31.8347 37.1438 31.1206 35.9398C33.2196 34.5431 35.3872 33.197 37.6008 31.923ZM44.3116 28.3441C46.9098 27.0563 49.5214 25.8737 52.1206 24.8143C52.6593 25.7974 53.1971 26.7925 53.7264 27.8149C54.9253 30.1309 56.0961 32.5456 57.225 35.01C55.6047 36.2311 53.9213 37.4292 52.1714 38.5881C49.6349 35.1021 47.0181 31.6543 44.3116 28.3441ZM30.9396 36.0618C31.6532 37.2644 32.3243 38.4374 33.0849 39.668C34.5278 42.0027 36.0466 44.3781 37.6167 46.7549C36.2038 47.4149 34.7948 48.023 33.3905 48.6032C32.218 45.549 31.1417 42.4738 30.2236 39.4235C29.9813 38.6185 29.7681 37.8196 29.5463 37.0194C30.0097 36.6993 30.4687 36.3765 30.9396 36.0618ZM4.44175 51.3253C5.16244 51.906 5.98096 52.3887 6.90318 52.7552C8.2308 53.2828 9.7554 53.5947 11.4322 53.7186C9.14635 56.9941 7.54241 60.3 6.88713 63.5386C6.19789 62.4236 5.5714 61.2867 5.00797 60.1247C4.51442 57.294 4.31735 54.3509 4.44175 51.3253ZM29.3592 37.1513C29.5754 37.9292 29.78 38.7034 30.0156 39.4859C30.9355 42.5423 32.0117 45.6239 33.1859 48.6826C27.563 50.9906 22.0805 52.6388 17.3029 53.2718C16.9563 53.3177 16.6367 53.3282 16.2978 53.3635C16.0931 51.7911 15.9575 50.1983 15.8748 48.5868C19.5939 44.5817 24.2293 40.7111 29.3592 37.1513ZM52.3234 24.7299C55.4056 23.4807 58.4488 22.4205 61.4029 21.5513C63.4879 22.9118 65.4592 24.3707 67.3279 25.9041C64.626 28.934 61.2375 31.9729 57.4005 34.8784C56.2757 32.4248 55.1124 30.0187 53.9183 27.712C53.3924 26.696 52.8584 25.7072 52.3234 24.7299ZM73.9694 14.2308C76.5415 15.7113 78.8937 17.3888 81.006 19.2378C78.5082 18.755 75.6081 18.7067 72.4103 19.0431C73.0504 17.7477 73.5525 16.4698 73.81 15.2349C73.8803 14.8977 73.9302 14.5623 73.9694 14.2308ZM61.6834 21.4727C64.8131 20.5639 67.8411 19.859 70.6613 19.4533C71.0716 19.3943 71.4549 19.3694 71.8565 19.3219C71.8884 19.3813 71.9244 19.4371 71.9562 19.4966C71.0775 21.1515 69.9276 22.8445 68.522 24.5533C68.1982 24.9469 67.8257 25.343 67.4771 25.7376C65.6483 24.2366 63.7189 22.8089 61.6834 21.4727ZM15.663 48.808C15.7449 50.3043 15.8757 51.785 16.0626 53.2476C15.4248 52.3238 14.8028 51.3988 14.2255 50.4666C14.602 50.0224 14.9549 49.5759 15.3547 49.1341C15.4533 49.0252 15.5631 48.9168 15.663 48.808ZM14.0772 50.6452C14.6497 51.5668 15.267 52.4847 15.8981 53.3978C14.4772 53.529 13.1111 53.5883 11.8497 53.518C12.5345 52.5568 13.2762 51.5991 14.0772 50.6452ZM11.6864 53.7363C13.0364 53.8198 14.507 53.7487 16.0335 53.6021C16.0607 53.6413 16.0856 53.6804 16.1129 53.7195C17.238 62.0172 20.0041 69.6873 23.856 76.0619C22.0212 76.2668 20.2926 76.3152 18.6643 76.2399C15.6841 73.9697 12.9596 71.4489 10.6288 68.6929C9.30935 67.1327 8.11667 65.4985 7.05532 63.8119C7.68063 60.5011 9.31948 57.1053 11.6864 53.7363ZM72.3012 19.2747C75.685 18.9085 78.7384 18.9633 81.3155 19.5121C82.4167 20.4952 83.447 21.5237 84.4176 22.5911C84.9623 23.7972 85.4566 25.0379 85.8996 26.3068C86.8836 29.1253 87.5885 32.0903 88.0707 35.123C87.1594 37.1496 85.916 39.2303 84.3109 41.3415C83.3522 41.299 82.3583 41.3031 81.3141 41.3747C80.437 39.9642 79.4851 38.5694 78.458 37.1917C77.4982 32.6036 76.1454 28.142 74.3901 24.0207C73.7213 22.4501 72.98 20.9502 72.2036 19.487C72.2408 19.4159 72.2651 19.3456 72.3012 19.2747ZM72.0879 19.7343C72.8322 21.1471 73.5458 22.5962 74.1902 24.1095C75.8794 28.0759 77.2033 32.3606 78.1543 36.7698C75.2174 32.8988 71.6874 29.2128 67.6447 25.8735C67.9941 25.4778 68.3694 25.0813 68.6943 24.6864C70.0682 23.0161 71.2112 21.3591 72.0879 19.7343ZM16.3218 53.5753C16.663 53.5397 16.9856 53.5318 17.3343 53.4856C22.1373 52.8493 27.6337 51.1991 33.2678 48.8864C34.8126 52.8922 36.5456 56.8431 38.3966 60.6383C35.1321 63.1727 32.1919 65.7964 29.7548 68.4224C24.7443 64.0569 20.1983 59.1209 16.553 53.9813C16.4741 53.8701 16.408 53.7568 16.33 53.6454C16.3269 53.6222 16.3249 53.5985 16.3218 53.5753ZM16.378 54.1125C20.0322 59.2639 24.5842 64.2099 29.6033 68.5838C28.7705 69.4888 27.9799 70.3902 27.2741 71.2894C26.0208 72.8862 24.9842 74.4692 24.194 76.0126C24.1598 76.0167 24.1244 76.0241 24.0902 76.0281C20.2944 69.7719 17.5397 62.2548 16.378 54.1125ZM5.15118 60.919C5.66053 61.9157 6.22003 62.8967 6.82169 63.8576C6.67593 64.6508 6.59683 65.4347 6.56675 66.218C5.97984 64.5055 5.5057 62.7365 5.15118 60.919ZM67.498 26.0385C71.658 29.4747 75.2677 33.2805 78.2502 37.2722C78.5512 38.715 78.8059 40.1673 79.0226 41.6305C78.7414 41.6682 78.4764 41.6852 78.1908 41.7297C73.3489 42.4842 67.8721 44.2266 62.2922 46.6093C60.8292 42.7254 59.2152 38.8411 57.4969 35.0802C61.361 32.1568 64.7739 29.0953 67.498 26.0385ZM81.6961 19.5827C81.7992 19.607 81.9168 19.6169 82.0183 19.6429C82.3922 19.7386 82.7535 19.8495 83.1047 19.9677C83.4491 20.6071 83.7798 21.2568 84.0929 21.9191C83.3352 21.1142 82.5295 20.3381 81.6961 19.5827ZM83.4126 20.0799C85.8293 20.9588 87.6693 22.397 88.749 24.4868C89.4481 25.9947 89.7191 27.614 89.6324 29.3136C88.2231 26.9074 86.5361 24.6174 84.5934 22.4782C84.224 21.6622 83.8285 20.863 83.4126 20.0799ZM33.4697 48.8087C34.8884 48.2225 36.3113 47.6035 37.7383 46.9362C39.8511 50.1294 42.061 53.2891 44.2869 56.3954C42.2965 57.7243 40.3872 59.0975 38.5664 60.5042C36.7254 56.7267 35.0064 52.7935 33.4697 48.8087ZM57.3161 35.2145C59.0265 38.9606 60.6329 42.8268 62.0895 46.6943C61.0064 47.1597 59.9224 47.6505 58.8356 48.163C56.7793 45.0395 54.5697 41.8949 52.2977 38.7666C54.0347 37.6161 55.7059 36.4268 57.3161 35.2145ZM6.99256 64.1418C8.0265 65.7634 9.18707 67.3309 10.4583 68.834C12.7353 71.5265 15.3906 73.9921 18.2855 76.2244C17.0063 76.1467 15.7763 76.0123 14.6566 75.7422C12.8736 75.3122 11.3175 74.6207 10.015 73.6605C8.72326 71.4967 7.62962 69.1923 6.75947 66.7708C6.76181 65.9005 6.84277 65.0266 6.99256 64.1418ZM37.9428 46.8446C40.3522 45.7117 42.7608 44.4722 45.1243 43.1472C47.5155 41.8068 49.8619 40.3817 52.1194 38.8931C54.3838 42.0107 56.5836 45.1462 58.6335 48.2588C55.8364 49.5852 53.0402 51.0411 50.313 52.6248C48.3156 53.7847 46.3687 55.0157 44.4701 56.2778C42.2499 53.1803 40.0505 50.0286 37.9428 46.8446ZM6.78225 67.4466C7.55353 69.4904 8.4826 71.4504 9.55772 73.3086C8.64614 72.5531 7.87345 71.6516 7.2683 70.5792C7.26469 70.5728 7.26113 70.5667 7.25752 70.5603C7.25663 70.5587 7.25573 70.5572 7.25483 70.5556C7.25437 70.5539 7.2526 70.5526 7.25214 70.5509C6.97262 69.5327 6.82756 68.4947 6.78225 67.4466ZM84.8321 23.0616C86.667 25.142 88.2696 27.3615 89.6065 29.6855C89.5012 30.9724 89.2015 32.3038 88.7035 33.6733C88.576 34.0239 88.388 34.386 88.2363 34.7407C87.7517 31.82 87.0524 28.9632 86.1022 26.2415C85.7229 25.1552 85.2859 24.1034 84.8321 23.0616ZM89.0218 24.5815C92.7122 31.1511 94.5881 38.2606 94.8307 45.3435C94.437 41.0899 93.3178 36.8696 91.4877 32.8725C90.9853 31.7754 90.4301 30.6962 89.8228 29.6367C89.9591 27.8606 89.7145 26.1624 89.0218 24.5815ZM8.46645 72.5798C8.8854 73.0311 9.35225 73.4366 9.84818 73.8061C10.4616 74.8315 11.1142 75.8294 11.8132 76.7893C13.1542 78.6307 14.6552 80.3382 16.281 81.9109C13.3265 79.2184 10.6896 76.0985 8.46645 72.5798ZM10.3144 74.1407C11.5517 74.9632 12.9882 75.5652 14.603 75.9545C15.8242 76.2491 17.174 76.3911 18.5762 76.4592C19.9516 77.505 21.371 78.5 22.8526 79.4251C22.746 79.8322 22.6555 80.2384 22.593 80.6369C22.1731 83.3161 22.7984 85.7856 24.6823 87.8731C19.6977 85.1234 15.3614 81.2907 11.9913 76.6628C11.3985 75.8488 10.8457 75.0023 10.3144 74.1407ZM89.7937 30.0413C90.3325 31.0001 90.8374 31.9709 91.2903 32.9602C93.4576 37.6939 94.6277 42.7423 94.7626 47.785C93.7936 44.9386 91.7577 43.1056 88.9739 42.1468C88.8969 39.7861 88.6523 37.4475 88.2873 35.1429C88.4947 34.6772 88.7325 34.2082 88.8996 33.7487C89.3594 32.4842 89.6626 31.2456 89.7937 30.0413ZM50.4183 52.8154C53.1526 51.2275 55.9533 49.7671 58.7579 48.4385C61.0513 51.9275 63.1197 55.3232 65.0445 58.6227C62.2712 60.512 59.3921 62.3297 56.4347 64.0172C54.9858 64.8439 53.5212 65.6345 52.0505 66.3999C49.5953 63.2867 47.0904 59.9255 44.5988 56.4547C46.4904 55.1973 48.4282 53.971 50.4183 52.8154ZM44.4106 56.5749C46.897 60.0394 49.3998 63.3913 51.8514 66.5011C49.175 67.888 46.4797 69.1567 43.8016 70.2997C43.7474 70.2076 43.69 70.1237 43.6359 70.0313C41.9201 67.101 40.2558 63.9574 38.6644 60.7043C40.4923 59.2907 42.4105 57.9103 44.4106 56.5749ZM58.9574 48.3496C60.0309 47.8438 61.1011 47.3574 62.1708 46.8977C63.5822 50.6591 64.8309 54.4075 65.8982 58.0356C65.6746 58.1907 65.4505 58.3469 65.2252 58.5009C63.3061 55.2118 61.2417 51.8263 58.9574 48.3496ZM62.3684 46.8162C67.9384 44.437 73.4033 42.6947 78.2213 41.944C78.5058 41.8996 78.7685 41.8849 79.0484 41.8474C79.2843 43.4716 79.4654 45.0967 79.5941 46.7292C75.81 50.5728 71.1685 54.3695 66.0883 57.9082C65.0227 54.2924 63.7739 50.5617 62.3684 46.8162ZM78.5528 37.7003C79.4486 38.9208 80.2856 40.1529 81.0634 41.3984C80.4728 41.4434 79.8516 41.5294 79.2373 41.6083C79.0431 40.297 78.8147 38.9958 78.5528 37.7003ZM38.4872 60.8433C40.0743 64.0852 41.7357 67.2162 43.4471 70.1389C43.4965 70.2233 43.545 70.3022 43.5945 70.3863C40.9859 71.4933 38.4056 72.4666 35.8802 73.2927C33.8343 71.8184 31.842 70.2421 29.9131 68.57C32.3298 65.9671 35.2475 63.3613 38.4872 60.8433ZM29.7588 68.7268C31.6525 70.3691 33.6124 71.9201 35.6194 73.3726C32.475 74.3898 29.419 75.199 26.551 75.6939C25.8363 75.8172 25.1525 75.8919 24.4612 75.9791C25.234 74.4926 26.2276 72.97 27.4386 71.427C28.142 70.5309 28.9274 69.6297 29.7588 68.7268ZM88.1215 35.5315C88.4479 37.6882 88.6722 39.8711 88.7463 42.0764C87.4892 41.6697 86.0719 41.4522 84.5501 41.3673C86.0403 39.3931 87.2297 37.4412 88.1215 35.5315ZM79.2667 41.8229C79.9154 41.7399 80.5705 41.6451 81.1919 41.6003C81.6151 42.2842 82.0233 42.9699 82.41 43.6583C82.2952 43.7919 82.1986 43.9248 82.0815 44.0585C81.366 44.875 80.5978 45.6947 79.8016 46.5106C79.6738 44.9435 79.493 43.3821 79.2667 41.8229ZM18.9487 76.4718C20.5331 76.5265 22.2026 76.4615 23.9706 76.2593C23.9883 76.2884 24.0039 76.3199 24.0217 76.349C23.5457 77.3208 23.1747 78.2738 22.9131 79.2089C21.5447 78.3528 20.2263 77.4316 18.9487 76.4718ZM81.4467 41.5927C82.3814 41.5332 83.285 41.5135 84.1483 41.5465C83.6541 42.1889 83.1101 42.8336 82.5604 43.4788C82.2047 42.8478 81.8328 42.2198 81.4467 41.5927ZM84.4051 41.5689C85.9982 41.6487 87.4705 41.8825 88.7638 42.3104C88.8981 46.8574 88.4666 51.4474 87.5334 55.8894C86.7744 52.6263 85.5556 49.2746 83.8955 45.9392C83.5202 45.185 83.0908 44.4355 82.6715 43.6843C83.2748 42.9784 83.8679 42.2721 84.4051 41.5689ZM24.3347 76.2079C25.08 76.1163 25.8218 76.0344 26.5937 75.9013C29.5188 75.3966 32.6341 74.5716 35.8389 73.5291C37.5773 74.7787 39.3396 75.9708 41.1314 77.0476C43.7767 78.6373 46.4654 79.9978 49.1522 81.1368C47.4223 82.9722 46.1185 84.7582 45.4605 86.378C45.324 86.7141 45.2274 87.0423 45.1471 87.3639C39.4603 86.5793 33.832 84.8157 28.5898 82.2953C27.1059 80.5592 25.7097 78.6649 24.4325 76.6214C24.3775 76.5334 24.3309 76.4362 24.2763 76.3477C24.2995 76.3008 24.311 76.2549 24.3347 76.2079ZM24.1687 76.5967C24.197 76.6424 24.221 76.6928 24.2494 76.7383C25.4452 78.6516 26.7517 80.4224 28.13 82.0699C26.4119 81.2251 24.73 80.3225 23.1134 79.32C23.3572 78.4339 23.7264 77.5213 24.1687 76.5967ZM82.525 43.8618C82.9279 44.5862 83.3414 45.3094 83.7032 46.0364C85.4387 49.5233 86.6754 53.0229 87.4181 56.4176C87.2537 57.1634 87.1097 57.9149 86.9152 58.6504C86.3053 60.9565 85.5174 63.1925 84.6111 65.3585C83.3531 64.5564 81.6047 64.304 79.5555 64.4703C79.3476 64.4872 79.1199 64.5341 78.9057 64.5596C79.3857 62.1507 79.7309 59.6745 79.91 57.1415C80.1496 53.7519 80.0959 50.2807 79.8267 46.8087C80.6778 45.9416 81.4879 45.0688 82.2489 44.2003C82.3478 44.0874 82.4277 43.9746 82.525 43.8618ZM79.6212 47.0078C79.8762 50.4093 79.925 53.81 79.6903 57.1295C79.5102 59.6778 79.1638 62.1694 78.6786 64.5893C76.107 64.9267 73.1245 65.8429 70.002 67.1688C69.1429 65.4715 68.2207 63.7199 67.2026 61.8899C66.9554 60.9413 66.7066 59.9922 66.4292 59.0213C66.3448 58.7257 66.248 58.4207 66.1608 58.1233C71.2155 54.6072 75.8347 50.8342 79.6212 47.0078ZM23.0499 79.5376C24.7908 80.6152 26.6053 81.5927 28.4621 82.4873C31.2894 85.7856 34.4641 88.4567 37.8394 90.4014C34.8714 90.7321 32.2116 90.7124 30.0083 90.296C28.3716 89.6961 26.7905 88.9833 25.2622 88.1738C23.0806 86.0396 22.3704 83.4898 22.8128 80.6681C22.8712 80.2959 22.9519 79.9186 23.0499 79.5376ZM88.984 42.385C91.7599 43.3621 93.7496 45.1914 94.6528 48.098C94.5492 53.2478 92.1846 58.3368 88.4069 63.1179C88.3885 60.9604 88.138 58.7255 87.6407 56.4348C88.649 51.8456 89.1185 47.0955 88.984 42.385ZM36.1048 73.4462C38.5971 72.6263 41.141 71.6613 43.7113 70.5701C45.8137 74.1279 47.9697 77.3618 50.1001 80.1767C49.8324 80.4404 49.5689 80.7047 49.3184 80.9669C46.6145 79.8264 43.9079 78.4603 41.2431 76.8589C39.5051 75.8145 37.7932 74.6544 36.1048 73.4462ZM43.9182 70.4833C46.6026 69.3372 49.3055 68.0642 51.9871 66.6738C52.1705 66.906 52.3602 67.166 52.5428 67.3954C54.3945 69.7215 56.1907 71.8787 57.9191 73.8571C55.0342 75.8299 52.3978 77.9353 50.2591 80.0174C48.146 77.2244 46.0047 74.0119 43.9182 70.4833ZM65.9727 58.2557C66.0529 58.5299 66.1424 58.8116 66.2202 59.0843C66.4195 59.7819 66.5927 60.4581 66.7764 61.1446C66.3271 60.3458 65.8155 59.51 65.3395 58.6921C65.5514 58.5473 65.7623 58.4015 65.9727 58.2557ZM65.1588 58.814C65.7444 59.8203 66.3816 60.8582 66.9263 61.8349C66.9515 61.8799 66.9693 61.9201 66.9943 61.965C67.5269 64.012 67.9829 65.9918 68.3596 67.8996C66.3285 68.8376 64.2684 69.9104 62.2507 71.0975C61.385 71.6068 60.5269 72.1328 59.6842 72.6746C59.1476 73.0196 58.6273 73.3772 58.1042 73.7325C56.3726 71.7522 54.5701 69.5897 52.7153 67.2598C52.5415 67.0415 52.3604 66.7941 52.1859 66.5733C53.649 65.8114 55.105 65.0266 56.5465 64.2041C59.5033 62.5169 62.3852 60.7026 65.1588 58.814ZM28.9795 82.7364C34.0965 85.1406 39.5683 86.8168 45.0956 87.581C44.9867 88.0985 44.9558 88.592 45.0138 89.0606C43.6398 89.4038 42.2884 89.7152 40.9905 89.9485C40.0335 90.1206 39.1054 90.2558 38.1997 90.3646C34.8904 88.5008 31.7762 85.92 28.9795 82.7364ZM67.4556 62.8281C68.2883 64.3456 69.0794 65.831 69.7992 67.2534C69.3875 67.4302 68.9765 67.6134 68.5613 67.8033C68.2411 66.1906 67.8872 64.5412 67.4556 62.8281ZM94.7798 49.1765C94.7765 49.4626 94.7664 49.7488 94.7563 50.0346C94.54 53.2238 94.0058 56.3826 93.144 59.4573C93.1399 59.4721 93.136 59.487 93.1319 59.5018C91.9297 63.2787 90.0534 66.8973 87.4988 70.2117C88.1228 68.1073 88.3971 65.8359 88.4062 63.4684C92.0429 58.93 94.3893 54.0973 94.7792 49.1762L94.7798 49.1765ZM62.363 71.2837C64.3573 70.1112 66.3947 69.0538 68.4012 68.1261C69.1756 72.1035 69.5965 75.7308 69.5554 78.7677C68.1521 79.598 66.7248 80.39 65.283 81.1492C63.2161 79.3128 60.8287 76.84 58.2499 73.9002C58.7646 73.5504 59.2737 73.1977 59.8015 72.8584C60.6418 72.3181 61.4996 71.7914 62.363 71.2837ZM87.5232 56.9649C87.9711 59.1705 88.1903 61.3201 88.1878 63.3931C87.3978 64.376 86.5597 65.3487 85.6556 66.3021C85.4091 65.9929 85.1146 65.7335 84.7939 65.5048C85.7154 63.3115 86.512 61.0456 87.1298 58.7098C87.2819 58.1347 87.3895 57.5462 87.5232 56.9649ZM58.0688 74.0218C60.6319 76.946 63.0095 79.4133 65.0819 81.2577C64.7786 81.4165 64.4781 81.5829 64.1737 81.7384C62.5954 82.5446 61.0016 83.2889 59.408 84.0009C56.8959 83.5867 54.3276 82.8811 51.7419 81.9369C51.2953 81.3867 50.8431 80.7891 50.3928 80.1976C52.5295 78.1149 55.1745 76.001 58.0688 74.0218ZM68.6072 68.0273C69.0427 67.828 69.4759 67.6393 69.9072 67.4545C71.519 70.6531 72.8309 73.5822 73.7707 76.1116C72.4637 76.9837 71.1345 77.8325 69.772 78.6435C69.8035 75.5943 69.3815 71.982 68.6072 68.0273ZM70.1094 67.3704C73.1863 66.0667 76.1148 65.1546 78.6367 64.8135C77.8888 68.4639 76.7896 71.927 75.3035 75.0805C74.8631 75.3881 74.4094 75.6833 73.9609 75.9842C73.0203 73.4586 71.71 70.5457 70.1094 67.3704ZM29.998 90.5206C30.0115 90.5232 30.0263 90.5256 30.0398 90.5281C34.184 92.0324 38.6401 92.8483 43.2714 92.8393C43.7195 92.9788 44.1689 93.1078 44.6212 93.2203C46.3908 93.6601 48.1891 93.8797 50.0025 93.8788C43.1241 94.2317 36.293 93.0672 29.998 90.5206ZM31.1735 90.6946C33.2231 90.9384 35.5742 90.8915 38.1555 90.5837C39.6084 91.3972 41.0891 92.0976 42.607 92.6175C38.6301 92.5579 34.7889 91.8891 31.1735 90.6946ZM50.2338 80.3569C50.5986 80.8359 50.9663 81.3194 51.329 81.7717C50.7346 81.5489 50.1398 81.3048 49.5445 81.0568C49.7671 80.8253 49.9977 80.5898 50.2338 80.3569ZM49.3759 81.2218C50.1198 81.5334 50.8612 81.8494 51.6038 82.1217C52.7423 83.5221 53.867 84.7609 54.9663 85.8656C53.1361 86.5779 51.3189 87.2226 49.537 87.7872C48.144 87.7204 46.7492 87.5875 45.356 87.4011C45.4325 87.0952 45.5259 86.7829 45.6572 86.4596C46.3069 84.8604 47.6237 83.0685 49.3759 81.2218ZM78.8644 64.7837C79.099 64.7549 79.3481 64.7095 79.5749 64.6911C81.6186 64.5253 83.3219 64.7892 84.528 65.5752C84.0352 66.7374 83.5121 67.88 82.9337 68.9876C80.7142 71.0315 78.2709 72.9903 75.668 74.829C77.0914 71.7311 78.14 68.3422 78.8644 64.7837ZM52.044 82.2897C54.4019 83.13 56.7449 83.7631 59.045 84.1639C57.7588 84.7325 56.4756 85.2827 55.1958 85.7846C54.1649 84.7537 53.1141 83.5877 52.044 82.2897ZM38.5118 90.5493C39.3316 90.4448 40.1722 90.3171 41.0317 90.1626C42.3255 89.93 43.6728 89.6239 45.0408 89.2828C45.202 90.1434 45.6749 90.9034 46.5021 91.5149C46.9174 91.8218 47.4228 92.0881 48.0189 92.3199C46.4353 92.5149 44.8639 92.622 43.3138 92.627C41.6794 92.1163 40.0754 91.4046 38.5118 90.5493ZM45.3096 87.6153C46.5307 87.7788 47.7533 87.8918 48.9749 87.964C47.7025 88.3572 46.456 88.6962 45.2279 89.0072C45.1766 88.5711 45.2069 88.1057 45.3096 87.6153ZM84.7133 65.7135C85.0097 65.9304 85.2775 66.1747 85.5042 66.4635C85.4189 66.5527 85.3449 66.6461 85.2587 66.735C84.6766 67.335 84.0605 67.9257 83.4383 68.512C83.8978 67.6007 84.3105 66.6602 84.7133 65.7135ZM88.1853 63.7386C88.1526 66.1282 87.8513 68.4172 87.1827 70.5238C87.1609 70.5926 87.1337 70.6587 87.1112 70.7273C86.9543 70.9234 86.7839 71.1128 86.6221 71.3066C86.89 69.1767 86.5774 67.5899 85.7826 66.4799C86.6361 65.5815 87.4313 64.6642 88.1853 63.7386ZM45.2499 89.2323C46.6578 88.8766 48.0878 88.4731 49.5518 88.0102C52.0545 88.1283 54.547 88.05 57.003 87.7568C57.7253 88.367 58.4342 88.9196 59.1212 89.3637C55.5573 90.837 52.0042 91.7827 48.5146 92.2562C47.7526 92.0011 47.1184 91.6977 46.6338 91.3396C45.8404 90.7532 45.3995 90.0436 45.2499 89.2323ZM85.6286 66.649C86.4029 67.7575 86.7061 69.3708 86.3683 71.6078C83.4705 75.0035 79.8023 78.0291 75.3353 80.5186C75.2803 80.265 75.2377 80.0249 75.1693 79.7561C78.3763 76.7384 81.0242 73.1167 83.1182 69.1137C83.9117 68.3817 84.6813 67.6387 85.4127 66.8847C85.488 66.8072 85.554 66.7268 85.6286 66.649ZM91.8205 63.4537C90.3682 67.2791 88.4074 70.9292 85.9755 74.2971L85.9748 74.285C86.0519 74.0284 86.1078 73.7917 86.1728 73.5463C86.6217 72.6684 87.0009 71.7504 87.3143 70.799C89.1538 68.4884 90.6501 66.0211 91.8205 63.4537ZM50.1375 87.8198C51.7813 87.2869 53.4474 86.6981 55.1293 86.0415C55.687 86.5951 56.2355 87.0916 56.7778 87.5598C54.5869 87.81 52.3678 87.8985 50.1375 87.8198ZM82.6539 69.5288C80.6331 73.2754 78.1162 76.6637 75.1022 79.519C74.9184 78.8234 74.6896 78.0732 74.4222 77.2855C74.7933 76.6137 75.1442 75.923 75.4771 75.2195C78.0395 73.4261 80.4493 71.5227 82.6539 69.5288ZM55.3605 85.9533C56.7176 85.4194 58.0789 84.8332 59.4423 84.2249C62.4915 84.7212 65.4586 84.7965 68.2745 84.3847C68.2054 84.4318 68.1373 84.4808 68.0682 84.5275C64.5725 86.0829 60.8714 87.0605 57.0753 87.5214C56.5129 87.0424 55.9415 86.5274 55.3605 85.9533ZM43.9984 92.8182C45.4754 92.7879 46.9692 92.674 48.475 92.4725C49.881 92.94 51.8073 93.1911 54.1933 93.2391C50.9853 93.8867 47.7832 93.7835 44.6709 93.0101C44.4451 92.954 44.2232 92.8812 43.9984 92.8182ZM59.8134 84.0633C61.3049 83.3906 62.7946 82.6868 64.2722 81.932C64.601 81.764 64.9239 81.5827 65.2513 81.4108C66.5507 82.5552 67.7279 83.4567 68.7454 84.0472C68.7201 84.0649 68.6958 84.0849 68.6705 84.1025C65.8571 84.5668 62.8803 84.5325 59.8134 84.0633ZM75.1206 75.4603C74.8655 75.9866 74.5991 76.5029 74.3222 77.0109C74.2292 76.7426 74.1411 76.4744 74.039 76.1964C74.4014 75.9535 74.7634 75.7077 75.1206 75.4603ZM73.8488 76.3237C73.9674 76.6473 74.0724 76.9643 74.1785 77.2743C72.9781 79.4332 71.5759 81.4156 69.966 83.1818C69.6999 83.3781 69.4315 83.5619 69.1649 83.7515C69.1669 83.741 69.171 83.7324 69.173 83.7219C69.1737 83.7179 69.1716 83.7138 69.1723 83.7098C69.5544 82.3399 69.7482 80.7138 69.7813 78.8886C71.1667 78.0662 72.5201 77.2093 73.8488 76.3237ZM65.4522 81.3026C66.8368 80.572 68.2099 79.8116 69.5593 79.0153C69.5213 80.7801 69.3313 82.3433 68.9625 83.6606L68.9605 83.668L68.9558 83.6707C68.9405 83.7527 68.9155 83.8099 68.8997 83.8904C67.9063 83.3197 66.7399 82.4345 65.4522 81.3026ZM74.2787 77.5488C74.5313 78.3033 74.7486 79.0195 74.9218 79.6846C73.9091 80.6307 72.8386 81.5152 71.7156 82.3336C71.3307 82.5069 70.9462 82.682 70.5512 82.8479C71.9554 81.2373 73.1989 79.4653 74.2787 77.5488ZM48.9829 92.408C52.3992 91.907 55.8735 90.9517 59.3553 89.499C60.0248 89.915 60.6765 90.2532 61.3061 90.4945C59.2739 91.6772 57.2205 92.5151 55.1632 93.0298C52.5815 93.0422 50.4987 92.8368 48.9829 92.408ZM57.2953 87.7212C60.6245 87.3001 63.8751 86.4827 66.9846 85.227C64.4561 86.8502 61.9107 88.1917 59.3685 89.26C59.3436 89.2442 59.3208 89.2362 59.2958 89.2201C58.6479 88.8048 57.9783 88.2902 57.2953 87.7212ZM86.9146 71.2835C86.7628 71.7024 86.5966 72.1138 86.4177 72.518C86.4766 72.2346 86.5375 71.9486 86.5787 71.6816C86.6914 71.5489 86.8043 71.4173 86.9146 71.2835ZM86.2886 72.0286C86.2077 72.4796 86.1013 72.9562 85.9702 73.4554C83.959 77.3902 80.5646 80.5229 75.6262 82.411C75.606 82.16 75.6058 81.9318 75.5653 81.6573C75.5234 81.3735 75.4416 81.046 75.3785 80.7378C79.769 78.2985 83.4016 75.345 86.2886 72.0286ZM74.9926 79.9194C75.0559 80.172 75.0828 80.3889 75.1337 80.6273C74.338 81.0656 73.5229 81.4885 72.6767 81.8916C73.4797 81.2681 74.2487 80.61 74.9926 79.9194ZM70.345 83.1783C70.3535 83.1748 70.3602 83.1683 70.3686 83.1648C70.5429 83.0928 70.7073 83.0155 70.8797 82.942C70.5685 83.1544 70.2441 83.3474 69.9248 83.5495C69.985 83.4849 70.0392 83.4152 70.0988 83.3501C70.1802 83.2901 70.2637 83.2389 70.345 83.1783ZM59.6144 89.3951C62.4717 88.1826 65.3321 86.6352 68.1664 84.7218C68.3472 84.6412 68.5281 84.5591 68.7078 84.4754C68.5779 84.6005 68.457 84.7342 68.3247 84.8567L68.32 84.8594C66.1132 87.1736 63.8421 88.9836 61.5388 90.3555C60.9241 90.1331 60.279 89.7976 59.6144 89.3951ZM69.188 84.0013C69.1799 84.0094 69.1731 84.0187 69.165 84.0269C69.1594 84.0279 69.1538 84.0292 69.1482 84.0302C69.1615 84.0208 69.1746 84.0107 69.188 84.0013ZM71.8326 82.5173C72.9933 81.9937 74.1101 81.4387 75.1803 80.8511C75.2362 81.1293 75.3124 81.4293 75.3503 81.6863C75.3936 81.9796 75.3946 82.2241 75.4138 82.4885C73.6993 83.1261 71.8017 83.6161 69.7151 83.9382C70.4412 83.4906 71.1473 83.0161 71.8326 82.5173ZM69.1804 84.3059C70.3743 85.0238 71.4065 85.5245 72.2572 85.7726C72.7305 85.9106 73.1556 85.9768 73.5318 85.9776C73.2326 86.1667 72.9409 86.366 72.6383 86.55C70.5969 87.7906 68.4903 88.9019 66.4252 89.8511C67.5582 88.8255 68.4323 87.0627 69.0048 84.4812C69.0638 84.4235 69.1219 84.3641 69.1804 84.3059ZM69.4399 84.2016C71.6412 83.882 73.6321 83.3751 75.4332 82.7089C75.4628 83.311 75.4497 83.8591 75.3446 84.2861C75.2754 84.567 75.1764 84.7982 75.0502 84.9984C74.6812 85.2478 74.3031 85.4851 73.9268 85.7271C73.4958 85.7984 72.967 85.7553 72.3213 85.567C71.5338 85.3373 70.556 84.8616 69.4399 84.2016ZM85.1737 75.2614C85.08 75.4191 85.0067 75.5757 84.9052 75.7338C84.721 75.9693 84.5288 76.1993 84.3399 76.4317C84.6351 76.0535 84.9113 75.6602 85.1737 75.2614ZM68.6656 84.8186C67.9547 87.7233 66.8597 89.5187 65.4557 90.2792C65.2038 90.3891 64.9563 90.4958 64.7066 90.6002C63.83 90.8534 62.8499 90.7918 61.7921 90.4488C64.0624 89.0787 66.3016 87.2914 68.4721 85.0167C68.4748 85.0137 68.476 85.0095 68.4788 85.0066C68.5435 84.9466 68.6015 84.8791 68.6656 84.8186ZM53.9305 93.5142C54.3483 93.4361 54.7639 93.3547 55.1817 93.2508C55.3457 93.2499 55.4857 93.2594 55.6542 93.2565C55.079 93.3566 54.5068 93.4358 53.9305 93.5142ZM84.0159 76.8293C82.2558 78.9468 80.2897 80.9227 78.1337 82.7385C77.2651 83.4219 76.3624 84.0902 75.4248 84.7347C75.4749 84.6096 75.5217 84.4819 75.5565 84.3405C75.6725 83.8691 75.6824 83.2766 75.6452 82.6318C79.197 81.2817 81.9737 79.2958 84.0159 76.8293ZM55.9196 93.0425C57.8082 92.5029 59.6934 91.6941 61.5563 90.5958C62.3709 90.8791 63.1469 90.9986 63.8735 90.9504C62.4657 91.5099 61.1043 91.9739 59.8282 92.3263C59.6587 92.372 59.489 92.4104 59.3192 92.4541C58.1877 92.7446 57.119 92.9559 56.1656 93.046C56.1629 93.046 56.1609 93.0439 56.1582 93.0439C56.0705 93.0465 56.0061 93.0404 55.9196 93.0425Z" stroke="#F37321" stroke-width="1.174"/>
</svg>
