<svg width="100" height="100" viewBox="0 0 100 100" fill="none" xmlns="http://www.w3.org/2000/svg">
<path d="M0.00565167 49.584C-0.11784 52.7708 1.79909 55.2544 4.12265 57.1874C6.68185 59.0886 10.2647 60.7942 14.6945 62.1868C23.5539 64.972 35.7285 66.6654 49.1185 66.6654H50.0038V66.2488C23.0978 66.2488 3.33977 58.553 3.33977 49.584H0.00677167L0.00565167 49.584Z" fill="#F37321"/>
<path d="M0.00565167 50.416C-0.11784 47.2292 1.79909 44.7456 4.12265 42.8126C6.68185 40.9114 10.2647 39.2058 14.6945 37.8132C23.5539 35.028 35.7285 33.3346 49.1185 33.3346H50.0038V33.7512C23.0978 33.7512 3.33977 41.447 3.33977 50.416H0.00677167L0.00565167 50.416Z" fill="#F37321"/>
<path d="M99.9943 49.584C100.118 52.7708 98.2009 55.2544 95.8773 57.1874C93.3181 59.0886 89.7353 60.7942 85.3055 62.1868C76.4461 64.972 64.2715 66.6654 50.8815 66.6654H49.9962V66.2488C76.9022 66.2488 96.6602 58.553 96.6602 49.584H99.9932L99.9943 49.584Z" fill="#F37321"/>
<path d="M99.9943 50.416C100.118 47.2292 98.2009 44.7456 95.8773 42.8126C93.3181 40.9114 89.7353 39.2058 85.3055 37.8132C76.4461 35.028 64.2715 33.3346 50.8815 33.3346H49.9962V33.7512C76.9022 33.7512 96.6602 41.447 96.6602 50.416H99.9932L99.9943 50.416Z" fill="#F37321"/>
<path d="M60.0033 50.0041C60.0033 55.5264 55.5264 60.0033 50.0041 60.0033C44.4818 60.0033 40.0049 55.5264 40.0049 50.0041C40.0049 44.4818 44.4818 40.0049 50.0041 40.0049C55.5264 40.0049 60.0033 44.4818 60.0033 50.0041Z" fill="#F37321"/>
<path d="M14.3544 85.0563C16.5204 87.3971 19.6321 87.7978 22.642 87.5216C25.796 87.0563 29.5354 85.7289 33.6525 83.5813C41.8865 79.2862 51.6927 71.8748 61.1609 62.4066L61.787 61.7806L61.4924 61.486C42.4669 80.5115 23.054 89.0408 16.7119 82.6987L14.3551 85.0555L14.3544 85.0563Z" fill="#F37321"/>
<path d="M14.9427 85.6447C12.602 83.4786 12.2013 80.3669 12.4774 77.3571C12.9427 74.2031 14.2701 70.4636 16.4177 66.3465C20.7129 58.1125 28.1242 48.3063 37.5924 38.8381L38.2184 38.2121L38.513 38.5067C19.4875 57.5322 10.9582 76.945 17.3003 83.2871L14.9435 85.6439L14.9427 85.6447Z" fill="#F37321"/>
<path d="M85.0575 14.3534C87.3983 16.5195 87.799 19.6311 87.5228 22.641C87.0575 25.795 85.7301 29.5345 83.5825 33.6515C79.2874 41.8856 71.876 51.6918 62.4078 61.16L61.7818 61.786L61.4872 61.4914C80.5127 42.4659 89.042 23.053 82.6999 16.711L85.0567 14.3542L85.0575 14.3534Z" fill="#F37321"/>
<path d="M85.6459 14.9417C83.4798 12.601 80.3681 12.2003 77.3583 12.4765C74.2043 12.9417 70.4648 14.2691 66.3477 16.4168C58.1137 20.7119 48.3075 28.1232 38.8393 37.5914L38.2133 38.2175L38.5079 38.5121C57.5334 19.4866 76.9462 10.9573 83.2883 17.2993L85.6451 14.9425L85.6459 14.9417Z" fill="#F37321"/>
<path d="M14.9429 14.3544C12.6022 16.5204 12.2015 19.6321 12.4777 22.642C12.9429 25.796 14.2703 29.5354 16.418 33.6525C20.7131 41.8865 28.1245 51.6927 37.5927 61.1609L38.2187 61.787L38.5133 61.4924C19.4878 42.4669 10.9585 23.054 17.3006 16.7119L14.9438 14.3551L14.9429 14.3544Z" fill="#F37321"/>
<path d="M14.3546 14.9427C16.5207 12.602 19.6324 12.2013 22.6422 12.4774C25.7962 12.9427 29.5357 14.2701 33.6528 16.4177C41.8868 20.7129 51.693 28.1242 61.1612 37.5924L61.7872 38.2184L61.4926 38.513C42.4671 19.4875 23.0542 10.9582 16.7122 17.3003L14.3554 14.9435L14.3546 14.9427Z" fill="#F37321"/>
<path d="M85.6459 85.0575C83.4798 87.3983 80.3681 87.799 77.3583 87.5228C74.2043 87.0575 70.4648 85.7301 66.3477 83.5825C58.1137 79.2874 48.3075 71.876 38.8393 62.4078L38.2133 61.7818L38.5079 61.4872C57.5334 80.5127 76.9462 89.042 83.2883 82.6999L85.6451 85.0567L85.6459 85.0575Z" fill="#F37321"/>
<path d="M85.0575 85.6459C87.3983 83.4798 87.799 80.3681 87.5228 77.3583C87.0575 74.2043 85.7301 70.4648 83.5825 66.3477C79.2874 58.1137 71.876 48.3075 62.4078 38.8393L61.7818 38.2133L61.4872 38.5079C80.5127 57.5334 89.042 76.9462 82.6999 83.2883L85.0567 85.6451L85.0575 85.6459Z" fill="#F37321"/>
<path d="M50.416 0.00565167C47.2292 -0.11784 44.7456 1.79909 42.8126 4.12265C40.9114 6.68185 39.2058 10.2647 37.8132 14.6945C35.028 23.5539 33.3346 35.7285 33.3346 49.1185V50.0038H33.7512C33.7512 23.0978 41.447 3.33977 50.416 3.33977V0.00677167L50.416 0.00565167Z" fill="#F37321"/>
<path d="M49.584 0.00565167C52.7708 -0.11784 55.2544 1.79909 57.1874 4.12265C59.0886 6.68185 60.7942 10.2647 62.1868 14.6945C64.972 23.5539 66.6654 35.7285 66.6654 49.1185V50.0038H66.2488C66.2488 23.0978 58.553 3.33977 49.584 3.33977V0.00677167L49.584 0.00565167Z" fill="#F37321"/>
<path d="M50.416 99.9943C47.2292 100.118 44.7456 98.2009 42.8126 95.8773C40.9114 93.3181 39.2058 89.7353 37.8132 85.3055C35.028 76.4461 33.3346 64.2715 33.3346 50.8815V49.9962H33.7512C33.7512 76.9022 41.447 96.6602 50.416 96.6602V99.9932L50.416 99.9943Z" fill="#F37321"/>
<path d="M49.584 99.9943C52.7708 100.118 55.2544 98.2009 57.1874 95.8773C59.0886 93.3181 60.7942 89.7353 62.1868 85.3055C64.972 76.4461 66.6654 64.2715 66.6654 50.8815V49.9962H66.2488C66.2488 76.9022 58.553 96.6602 49.584 96.6602V99.9932L49.584 99.9943Z" fill="#F37321"/>
</svg>
