<svg width="29" height="21" viewBox="0 0 29 21" fill="none" xmlns="http://www.w3.org/2000/svg">
<path d="M28.7111 4.70029C28.7111 4.70029 28.4279 2.70088 27.5557 1.82295C26.4512 0.667481 25.2164 0.661816 24.65 0.593847C20.5945 0.299316 14.5057 0.299316 14.5057 0.299316H14.4943C14.4943 0.299316 8.40547 0.299316 4.35 0.593847C3.78359 0.661816 2.54883 0.667481 1.44434 1.82295C0.57207 2.70088 0.294531 4.70029 0.294531 4.70029C0.294531 4.70029 0 7.05088 0 9.3958V11.5935C0 13.9384 0.288867 16.289 0.288867 16.289C0.288867 16.289 0.57207 18.2884 1.43867 19.1663C2.54316 20.3218 3.99316 20.2821 4.63887 20.4067C6.96113 20.6276 14.5 20.6956 14.5 20.6956C14.5 20.6956 20.5945 20.6843 24.65 20.3954C25.2164 20.3274 26.4512 20.3218 27.5557 19.1663C28.4279 18.2884 28.7111 16.289 28.7111 16.289C28.7111 16.289 29 13.944 29 11.5935V9.3958C29 7.05088 28.7111 4.70029 28.7111 4.70029ZM11.5037 14.2612V6.11064L19.3371 10.2001L11.5037 14.2612Z" fill="white"/>
</svg>
