<svg xmlns="http://www.w3.org/2000/svg" viewBox="0 0 62.52 56.69"><defs><style>.cls-1{fill:#fbb584;}.cls-2{fill:#f89b6c;}.cls-3{fill:#f37321;}</style></defs><title>자산 2</title><g id="레이어_2" data-name="레이어 2"><g id="레이어_1-2" data-name="레이어 1"><path class="cls-1" d="M23.08,29.06c-.81-7.37,6.91-13.29,17.25-13.2S59.72,22,60.53,29.34s-6.91,13.28-17.25,13.2S23.89,36.43,23.08,29.06m39.37,2.29c-.93-9.14-11.34-16.63-23.24-16.73S18.42,21.86,19.35,31,30.69,47.62,42.59,47.72s20.8-7.23,19.86-16.37"/><path class="cls-2" d="M44.48,47.9C38.62,54,29.21,54.54,23.47,49s-5.65-14.92.22-21,15.28-6.63,21-1.14,5.65,14.92-.22,21M22.77,27.8c-6.81,7.12-6.92,18.07-.25,24.46s17.61,5.8,24.42-1.32,6.93-18.07.25-24.46-17.61-5.8-24.43,1.32"/><path class="cls-3" d="M23.39,4.88C35.58.31,47.64,4.93,50.32,15.2s-5,22.31-17.22,26.87S8.84,42,6.17,31.75s5-22.3,17.22-26.87M12.07,8.8C-.58,18.82-3.8,33.33,4.87,41.21s26,6.16,38.62-3.86S59.36,12.83,50.68,4.95s-26-6.16-38.61,3.86"/></g></g></svg>