<svg id="레이어_1" data-name="레이어 1" xmlns="http://www.w3.org/2000/svg" viewBox="0 0 1920 780"><defs><style>.cls-1{fill:#fbb584;}.cls-1,.cls-2,.cls-3{opacity:0.05;}.cls-2{fill:#f89b6c;}.cls-4{fill:#f37321;}</style></defs><title>대지 1</title><path class="cls-1" d="M1733.11,284c-9.24,83.86-112.23,152.66-230,153.48s-205.67-66.31-196.47-150.32c9.22-83.85,112.21-152.6,230-153.54S1742.33,200,1733.11,284m-448.34,26c-10.69,104.1,90.6,187.53,226.15,186.47S1765,410,1775.6,306,1685,118.43,1549.44,119.52s-254,86.39-264.66,190.48"/><path class="cls-2" d="M1489.38,498.52c-66.79-69.69-67.88-177-2.49-239.63s172.55-56.8,239.33,12.95,67.92,177,2.5,239.63-172.59,56.9-239.34-12.95m247.35-228.89c-77.62-81.09-202.19-87.81-278.19-15.06s-74.77,197.52,2.87,278.58,202.16,87.8,278.17,15.06,74.76-197.54-2.85-278.58"/><g class="cls-3"><path class="cls-4" d="M1418.82,9.35C1422.42,6.08,1426.16,3,1430,0h116.9c-61,19.67-107.68,63.73-123.95,126.08-30.54,117,57.29,254,196.13,306,131.48,49.32,261.56,4.72,300.91-99.44V438.5c-103.72,70.69-284.56,46.54-419.25-60.08C1356.68,264.4,1320,99.15,1418.82,9.35Z"/><path class="cls-4" d="M1920,196.72c-26.8-79.84-97.08-153.19-190.37-188.2q-13-4.87-26-8.53h71a479.24,479.24,0,0,1,83.9,53.26A436.88,436.88,0,0,1,1920,112.18Z"/></g></svg>