<svg id="레이어_1" data-name="레이어 1" xmlns="http://www.w3.org/2000/svg" viewBox="0 0 1920 780"><defs><style>.cls-1{fill:#fbb584;}.cls-1,.cls-2,.cls-3{opacity:0.05;}.cls-2{fill:#f89b6c;}.cls-4{fill:#f37321;}</style></defs><title>대지 1</title><path class="cls-1" d="M186.89,284c-9.22-84,78.74-151.31,196.49-150.38s220.73,69.69,230,153.54c9.21,84-78.69,151.25-196.47,150.32S196.13,367.84,186.89,284m448.34,26C624.59,205.91,506.09,120.66,370.56,119.52S133.76,201.91,144.4,306,273.54,495.34,409.08,496.47,645.91,414.1,635.23,310"/><path class="cls-2" d="M430.62,498.52c-66.75,69.84-173.93,75.58-239.34,12.95s-64.31-169.9,2.5-239.63,174-75.53,239.33-12.95,64.29,169.94-2.49,239.63M183.27,269.63c-77.61,81-78.85,205.77-2.85,278.58s200.6,66,278.17-15.06,78.92-205.8,2.87-278.58-200.57-66-278.19,15.06"/><g class="cls-3"><path class="cls-4" d="M501.18,9.35C497.58,6.08,493.84,3,490,0H373.09c61,19.67,107.68,63.73,123.95,126.08,30.54,117-57.29,254-196.13,306C169.43,481.42,39.35,436.81,0,332.66V438.5C103.72,509.2,284.56,485,419.25,378.42,563.32,264.4,600,99.15,501.18,9.35Z"/><path class="cls-4" d="M0,196.72C26.8,116.89,97.08,43.53,190.37,8.53q13-4.87,26-8.53h-71a479.24,479.24,0,0,0-83.9,53.26A436.88,436.88,0,0,0,0,112.18Z"/></g></svg>